<svg width="30" height="36" viewBox="0 0 30 36" fill="none" xmlns="http://www.w3.org/2000/svg">
<g filter="url(#filter0_d)">
<path d="M7.5 25V5C7.5 3.625 8.625 2.5 10 2.5H20C21.375 2.5 22.5 3.625 22.5 5V25C22.5 26.375 21.375 27.5 20 27.5H10C8.625 27.5 7.5 26.375 7.5 25Z" fill="#37474F"/>
<path d="M20 4.375H10C9.625 4.375 9.375 4.625 9.375 5V23.125C9.375 23.5 9.625 23.75 10 23.75H20C20.375 23.75 20.625 23.5 20.625 23.125V5C20.625 4.625 20.375 4.375 20 4.375Z" fill="#BBDEFB"/>
<path d="M13.125 25H16.875V26.25H13.125V25Z" fill="#78909C"/>
</g>
<defs>
<filter id="filter0_d" x="-4" y="0" width="38" height="38" filterUnits="userSpaceOnUse" color-interpolation-filters="sRGB">
<feFlood flood-opacity="0" result="BackgroundImageFix"/>
<feColorMatrix in="SourceAlpha" type="matrix" values="0 0 0 0 0 0 0 0 0 0 0 0 0 0 0 0 0 0 127 0"/>
<feOffset dy="4"/>
<feGaussianBlur stdDeviation="2"/>
<feColorMatrix type="matrix" values="0 0 0 0 0 0 0 0 0 0 0 0 0 0 0 0 0 0 0.25 0"/>
<feBlend mode="normal" in2="BackgroundImageFix" result="effect1_dropShadow"/>
<feBlend mode="normal" in="SourceGraphic" in2="effect1_dropShadow" result="shape"/>
</filter>
</defs>
</svg>
