<svg width="30" height="30" viewBox="0 0 30 30" fill="none" xmlns="http://www.w3.org/2000/svg">
<g clip-path="url(#clip0)">
<path fill-rule="evenodd" clip-rule="evenodd" d="M5.04061 10.444C7.62087 9.38848 11.1424 8.75001 15 8.75001C18.8576 8.75001 22.3791 9.38848 24.9594 10.444C26.248 10.9712 27.3321 11.6147 28.104 12.3612C28.8777 13.1095 29.375 14.0014 29.375 15C29.375 15.9986 28.8777 16.8905 28.104 17.6388C27.3321 18.3853 26.248 19.0288 24.9594 19.556C22.3791 20.6115 18.8576 21.25 15 21.25C11.1424 21.25 7.62087 20.6115 5.04061 19.556C3.75201 19.0288 2.66786 18.3853 1.89602 17.6388C1.12232 16.8905 0.625 15.9986 0.625 15C0.625 14.0014 1.12232 13.1095 1.89602 12.3612C2.66786 11.6147 3.75201 10.9712 5.04061 10.444ZM2.76505 13.2597C2.14718 13.8573 1.875 14.4453 1.875 15C1.875 15.5547 2.14718 16.1427 2.76505 16.7403C3.38476 17.3397 4.31425 17.9083 5.5139 18.399C7.91013 19.3793 11.2636 20 15 20C18.7364 20 22.0899 19.3793 24.4861 18.399C25.6858 17.9083 26.6152 17.3397 27.235 16.7403C27.8528 16.1427 28.125 15.5547 28.125 15C28.125 14.4453 27.8528 13.8573 27.235 13.2597C26.6152 12.6603 25.6858 12.0917 24.4861 11.601C22.0899 10.6207 18.7364 10 15 10C11.2636 10 7.91013 10.6207 5.5139 11.601C4.31425 12.0917 3.38476 12.6603 2.76505 13.2597Z" fill="#2196F3"/>
<path fill-rule="evenodd" clip-rule="evenodd" d="M6.07417 21.3477C6.45016 18.5853 7.65791 15.2165 9.58668 11.8758L9.58669 11.8757C11.5156 8.53512 13.8293 5.8048 16.0336 4.09806C17.1344 3.24571 18.2337 2.62858 19.2661 2.33341C20.301 2.03754 21.322 2.05273 22.1868 2.55203C23.0516 3.05137 23.5753 3.928 23.8365 4.97219C24.097 6.01391 24.1122 7.27453 23.9245 8.65404C23.5484 11.4163 22.3406 14.7851 20.4119 18.1257C18.483 21.4665 16.1693 24.1969 13.9651 25.9036C12.8642 26.756 11.7649 27.3731 10.7325 27.6683C9.6976 27.9642 8.6766 27.949 7.81179 27.4497L7.81173 27.4497C6.94699 26.9503 6.42336 26.0737 6.16218 25.0295C5.90161 23.9878 5.8864 22.7272 6.07417 21.3477ZM8.43675 26.3672C7.95642 26.0898 7.58337 25.5601 7.37479 24.7262C7.16558 23.8898 7.13792 22.8005 7.31273 21.5163C7.6619 18.9509 8.80107 15.7364 10.6692 12.5007C12.5374 9.26516 14.7518 6.67142 16.7988 5.0864C17.8237 4.29288 18.7808 3.77222 19.6098 3.53523C20.4362 3.29894 21.0814 3.3572 21.5618 3.63452C22.0422 3.9119 22.4153 4.44162 22.6239 5.27553C22.8331 6.11192 22.8607 7.20116 22.6859 8.48544C22.3367 11.0507 21.1975 14.2652 19.3294 17.5007C17.4611 20.7364 15.2468 23.3303 13.1998 24.9153C12.175 25.7088 11.2178 26.2295 10.3889 26.4665C9.56244 26.7028 8.9172 26.6445 8.4368 26.3672" fill="#2196F3"/>
<path fill-rule="evenodd" clip-rule="evenodd" d="M6.16169 4.97074C6.42287 3.92655 6.9465 3.04992 7.81124 2.55057L7.8113 2.55054C8.67612 2.05127 9.69713 2.03607 10.732 2.33195C11.7645 2.62712 12.8638 3.24426 13.9647 4.09663C16.1689 5.8034 18.4826 8.53379 20.4114 11.8745C22.3401 15.2151 23.5479 18.5839 23.924 21.3462C24.1117 22.7257 24.0965 23.9864 23.836 25.0281C23.5748 26.0723 23.0511 26.9489 22.1863 27.4482C21.3215 27.9475 20.3005 27.9627 19.2657 27.6668C18.2333 27.3717 17.1339 26.7545 16.0331 25.9022C13.8289 24.1955 11.5152 21.4651 9.58644 18.1245C7.65755 14.7838 6.44974 11.4149 6.07372 8.6526C5.88593 7.27308 5.90113 6.01245 6.16169 4.97074ZM7.31227 8.484C7.66147 11.0493 8.8007 14.2638 10.6689 17.4995C12.537 20.7351 14.7513 23.3288 16.7984 24.9139C17.8232 25.7074 18.7803 26.228 19.6093 26.465C20.4357 26.7013 21.081 26.6431 21.5613 26.3657C22.0417 26.0884 22.4148 25.5586 22.6234 24.7247C22.8326 23.8883 22.8602 22.7991 22.6854 21.5148C22.3362 18.9495 21.197 15.7351 19.3289 12.4995C17.4607 9.26382 15.2465 6.67 13.1994 5.08496C12.1746 4.29143 11.2174 3.77076 10.3884 3.53377C9.56197 3.29748 8.91671 3.35572 8.43631 3.63303M7.31227 8.484C7.13744 7.19971 7.16509 6.11046 7.3743 5.27405L7.31227 8.484ZM7.3743 5.27405C7.58288 4.44016 7.95593 3.91046 8.43626 3.63307L7.3743 5.27405Z" fill="#2196F3"/>
<path d="M17.5 15C17.5 16.3806 16.3806 17.5 15 17.5C13.6194 17.5 12.5 16.3806 12.5 15C12.5 13.6194 13.6194 12.5 15 12.5C16.3806 12.5 17.5 13.6194 17.5 15Z" fill="#F94515"/>
</g>
<defs>
<clipPath id="clip0">
<rect width="30" height="30" fill="white"/>
</clipPath>
</defs>
</svg>
