<svg width="30" height="30" viewBox="0 0 30 30" fill="none" xmlns="http://www.w3.org/2000/svg">
<path d="M26.25 11.875H3.75V5.625C3.75 4.58936 4.58936 3.75 5.625 3.75H24.375C25.4106 3.75 26.25 4.58936 26.25 5.625V11.875Z" fill="#455A64"/>
<path d="M3.75 10H26.25V24.375C26.25 25.4106 25.4106 26.25 24.375 26.25H5.625C4.58936 26.25 3.75 25.4106 3.75 24.375V10Z" fill="#BBDEFB"/>
<path d="M8.125 6.875C8.125 7.56543 7.56543 8.125 6.875 8.125C6.18457 8.125 5.625 7.56543 5.625 6.875C5.625 6.18457 6.18457 5.625 6.875 5.625C7.56543 5.625 8.125 6.18457 8.125 6.875Z" fill="#8BC34A"/>
<path d="M11.875 6.875C11.875 7.56543 11.3154 8.125 10.625 8.125C9.93457 8.125 9.375 7.56543 9.375 6.875C9.375 6.18457 9.93457 5.625 10.625 5.625C11.3154 5.625 11.875 6.18457 11.875 6.875Z" fill="#FFEB3B"/>
<path d="M24.375 7.5C24.375 7.8457 24.0957 8.125 23.75 8.125H14.375C14.0293 8.125 13.75 7.8457 13.75 7.5V6.25C13.75 5.9043 14.0293 5.625 14.375 5.625H23.75C24.0957 5.625 24.375 5.9043 24.375 6.25V7.5Z" fill="#FAFAFA"/>
<path d="M5.625 11.875H16.25V18.75H5.625V11.875Z" fill="#90CAF9"/>
<path d="M5.625 20.625H16.25V24.375H5.625V20.625Z" fill="#90CAF9"/>
<path d="M18.125 11.875H24.375V24.375H18.125V11.875Z" fill="#90CAF9"/>
</svg>
