<svg width="40" height="40" viewBox="0 0 40 40" fill="none" xmlns="http://www.w3.org/2000/svg">
<path d="M23.3333 31.6677C23.3333 33.5085 21.8408 35.001 20 35.001C18.1591 35.001 16.6666 33.5085 16.6666 31.6677C16.6666 29.8265 18.1591 28.3344 20 28.3344C21.8408 28.3344 23.3333 29.8265 23.3333 31.6677Z" fill="#DB8509"/>
<path d="M21.6666 9.16669C21.6666 10.0866 20.9199 10.8334 20 10.8334C19.0801 10.8334 18.3333 10.0866 18.3333 9.16669V5.83335C18.3333 4.91343 19.0801 4.16669 20 4.16669C20.9199 4.16669 21.6666 4.91343 21.6666 5.83335V9.16669Z" fill="#DB8509"/>
<path d="M23.2392 32.4252C23.2959 32.181 23.3333 31.9284 23.3333 31.6677C23.3333 31.3483 23.275 31.0459 23.1901 30.7533C22.1741 30.8041 21.1106 30.8334 20 30.8334C18.8893 30.8334 17.8258 30.8041 16.8092 30.7533C16.7259 31.0459 16.6666 31.3483 16.6666 31.6677C16.6666 31.9284 16.7041 32.181 16.7607 32.4252C17.9866 32.4825 19.1051 32.5 20 32.5C20.8948 32.5 22.0133 32.4825 23.2392 32.4252Z" fill="#BC6F0A"/>
<path d="M27.5 27.5V14.001C27.5 9.85905 24.1426 6.50098 20 6.50098C15.8574 6.50098 12.5 9.85905 12.5 14.001V27.5H27.5Z" fill="#FFC107"/>
<path d="M34.1666 27.5C34.1666 29.3408 28.2842 30.8334 20 30.8334C11.7158 30.8334 5.83331 29.3408 5.83331 27.5C5.83331 25.6592 11.7158 24.1667 20 24.1667C28.2842 24.1667 34.1666 25.6592 34.1666 27.5Z" fill="#FFC107"/>
<path d="M5.83331 27.5C5.83331 25.8343 12.5 19.999 12.5 17.5C12.5 15.001 27.5 14.999 27.5 17.5C27.5 20.001 34.1666 25.8324 34.1666 27.5C34.1666 29.1676 5.83331 29.1657 5.83331 27.5Z" fill="#FFC107"/>
<path d="M7.72913 24.5199C7.31995 25.0144 6.95504 25.475 6.65002 25.8949C8.00159 26.4408 13.4417 28.4467 20.4518 28.4467C24.4065 28.4467 28.859 27.7966 33.3483 25.8933C33.0465 25.4776 32.6849 25.0219 32.2809 24.5332C21.4156 28.9366 10.5817 25.5668 7.72913 24.5199Z" fill="#FFE082"/>
</svg>
