<svg width="40" height="40" viewBox="0 0 40 40" fill="none" xmlns="http://www.w3.org/2000/svg">
<path d="M3.33331 5.83334H36.6666V30.8333H3.33331V5.83334Z" fill="#E8EAF6"/>
<path d="M9.16669 10H30.8334V13.3333H9.16669V10Z" fill="#5C6BC0"/>
<path d="M9.16669 15H30.8334V16.6667H9.16669V15Z" fill="#5C6BC0"/>
<path d="M2.5 31.6667H37.5V5H2.5V31.6667ZM35.8333 27.5C34.4525 27.5 33.3333 28.6191 33.3333 30H6.66667C6.66667 28.6191 5.54753 27.5 4.16667 27.5V9.16667C5.54753 9.16667 6.66667 8.04753 6.66667 6.66667H33.3333C33.3333 8.04753 34.4525 9.16667 35.8333 9.16667V27.5Z" fill="#5C6BC0"/>
<path d="M20 19.1667C17.6982 19.1667 15.8333 21.0325 15.8333 23.3333C15.8333 25.6351 17.6982 27.5 20 27.5C22.3008 27.5 24.1666 25.6351 24.1666 23.3333C24.1666 21.0325 22.3008 19.1667 20 19.1667ZM20 25.8333C18.6191 25.8333 17.5 24.7142 17.5 23.3333C17.5 21.9525 18.6191 20.8333 20 20.8333C21.3808 20.8333 22.5 21.9525 22.5 23.3333C22.5 24.7142 21.3808 25.8333 20 25.8333Z" fill="#5C6BC0"/>
<path d="M20 27.5C19.0684 27.5 18.2168 27.1833 17.5225 26.6667H17.5V34.1667L20 31.6657L22.5 34.1667V26.6667H22.4775C21.7832 27.1833 20.9316 27.5 20 27.5Z" fill="#5C6BC0"/>
</svg>
