<svg width="30" height="30" viewBox="0 0 30 30" fill="none" xmlns="http://www.w3.org/2000/svg">
<path d="M14.958 1.25L1.875 5.80322L3.94238 22.7549L14.9719 28.75L26.0581 22.6738L28.125 5.72241L14.958 1.25Z" fill="#BDBDBD"/>
<path d="M26.7612 6.57935L15 2.58448V27.3093L24.895 21.8858L26.7612 6.57935Z" fill="#B71C1C"/>
<path d="M14.9631 2.57177L3.23804 6.65258L5.10498 21.9643L14.9695 27.3257L15 27.3093V2.58447L14.9631 2.57177Z" fill="#DD2C00"/>
<path d="M15 3.74756V9.68994L20.3613 21.25H23.1169L15 3.74756Z" fill="#BDBDBD"/>
<path d="M6.88306 21.25H9.63867L15 9.68994V3.74756L6.88306 21.25Z" fill="#EEEEEE"/>
<path d="M15 15H18.75V17.5H15V15Z" fill="#BDBDBD"/>
<path d="M11.25 15H15V17.5H11.25V15Z" fill="#EEEEEE"/>
</svg>
