<svg width="30" height="30" viewBox="0 0 30 30" fill="none" xmlns="http://www.w3.org/2000/svg">
<path d="M3.75 5H26.25V21.25H3.75V5Z" fill="#546E7A"/>
<path d="M5 6.25H25V19.375H5V6.25Z" fill="#BBDEFB"/>
<path d="M11.25 17.5H7.5C6.80933 17.5 6.25 16.9407 6.25 16.25V9.375C6.25 8.68433 6.80933 8.125 7.5 8.125H11.25C11.9407 8.125 12.5 8.68433 12.5 9.375V16.25C12.5 16.9407 11.9407 17.5 11.25 17.5Z" fill="#E38939"/>
<path d="M13.125 21.25H16.875V23.125H13.125V21.25Z" fill="#455A64"/>
<path d="M20.625 23.125C19.375 23.125 10.625 23.125 9.375 23.125C8.125 23.125 8.125 24.375 8.125 24.375V25H21.875V24.375C21.875 24.375 21.875 23.125 20.625 23.125Z" fill="#455A64"/>
<path d="M10 16.25C10 16.595 9.71997 16.875 9.375 16.875C9.03003 16.875 8.75 16.595 8.75 16.25C8.75 15.905 9.03003 15.625 9.375 15.625C9.71997 15.625 10 15.905 10 16.25Z" fill="#A6642A"/>
<path d="M7.5 9.375H11.25V15.625H7.5V9.375Z" fill="#FFF3E0"/>
<path d="M22.5 17.5H15C14.3093 17.5 13.75 16.9407 13.75 16.25V9.375C13.75 8.68433 14.3093 8.125 15 8.125H22.5C23.1907 8.125 23.75 8.68433 23.75 9.375V16.25C23.75 16.9407 23.1907 17.5 22.5 17.5Z" fill="#E38939"/>
<path d="M19.375 16.25C19.375 16.595 19.095 16.875 18.75 16.875C18.405 16.875 18.125 16.595 18.125 16.25C18.125 15.905 18.405 15.625 18.75 15.625C19.095 15.625 19.375 15.905 19.375 16.25Z" fill="#A6642A"/>
<path d="M15 9.375H22.5V15.625H15V9.375Z" fill="#FFF3E0"/>
</svg>
