<svg width="20" height="20" viewBox="0 0 20 20" fill="none" xmlns="http://www.w3.org/2000/svg">
<path d="M10 2.5C5.86426 2.5 2.5 5.86426 2.5 10H3.75C3.75 6.55273 6.55273 3.75 10 3.75C12.3096 3.75 14.3286 5.00732 15.4102 6.875H13.125V8.125H17.5V3.75H16.25V5.87891C14.9097 3.84521 12.6123 2.5 10 2.5ZM16.25 10C16.25 13.4473 13.4473 16.25 10 16.25C7.69043 16.25 5.67139 14.9927 4.58984 13.125H6.875V11.875H2.5V16.25H3.75V14.1211C5.09033 16.1548 7.3877 17.5 10 17.5C14.1357 17.5 17.5 14.1357 17.5 10H16.25Z" fill="#F1FCFF"/>
</svg>
