<svg width="20" height="20" viewBox="0 0 20 20" fill="none" xmlns="http://www.w3.org/2000/svg">
<path d="M10 1.875L1.875 4.375L3.81592 4.9707L5.625 5.52734V7.19238C5.54688 7.2876 5.48828 7.38037 5.44189 7.47803C5.32959 7.71484 5.25879 7.97852 5.19531 8.29102C5.07568 8.88428 5.01221 9.65088 5.00488 10.4907C4.62402 10.8325 4.375 11.3232 4.375 11.875C4.375 12.6733 4.94141 13.2495 5.64697 13.5181C5.93018 14.3335 6.40137 15.2295 7.08008 15.9888C7.82227 16.8164 8.81348 17.5 10 17.5C11.1865 17.5 12.1777 16.8164 12.9199 15.9888C13.5986 15.2295 14.0698 14.3335 14.353 13.5181C15.0586 13.2495 15.625 12.6733 15.625 11.875C15.625 11.3232 15.3784 10.8252 14.9927 10.481C14.9854 9.64356 14.9219 8.88184 14.8047 8.29102C14.7412 7.97852 14.6704 7.71484 14.5581 7.47803C14.5117 7.38037 14.4531 7.2876 14.375 7.19238V5.52734L18.125 4.375L10 1.875ZM10 3.18359L13.877 4.375L10 5.56641L6.12305 4.375L10 3.18359ZM6.875 5.91309L10 6.875L10.1855 6.81885L13.125 5.91309V7.36328C13.1177 7.37305 13.125 7.37549 13.0957 7.39502C12.998 7.47803 12.7954 7.59766 12.5171 7.70996C11.958 7.93213 11.0913 8.125 10 8.125C8.90869 8.125 8.04199 7.93213 7.48291 7.70996C7.20459 7.59766 7.00195 7.47803 6.9043 7.39502C6.875 7.37549 6.88232 7.37305 6.875 7.36328V5.91309ZM6.41602 8.56689C6.59668 8.67676 6.79199 8.7793 7.02148 8.86963C7.75635 9.1626 8.76465 9.375 10 9.375C11.2354 9.375 12.2437 9.1626 12.9785 8.86963C13.208 8.7793 13.4033 8.67676 13.584 8.56689C13.6816 9.07227 13.75 9.80957 13.75 10.625V11.1548L14.0625 11.3379C14.2529 11.4453 14.375 11.6382 14.375 11.875C14.375 12.2095 14.126 12.4658 13.7988 12.4927L13.3789 12.5269L13.2544 12.9297C13.0469 13.606 12.583 14.4897 11.9849 15.1562C11.3892 15.8228 10.6934 16.25 10 16.25C9.30664 16.25 8.61084 15.8228 8.01514 15.1562C7.41699 14.4897 6.95312 13.606 6.74561 12.9297L6.62109 12.5269L6.20117 12.4927C5.87402 12.4658 5.625 12.2095 5.625 11.875C5.625 11.6406 5.74951 11.4478 5.94238 11.3379L6.26221 11.1523L6.25 10.625V10.6177C6.25 9.80713 6.31836 9.07227 6.41602 8.56689ZM5.10742 10.625H5.62744L5.10254 10.6372L5.10742 10.625ZM8.125 11.25C7.78076 11.25 7.5 11.5308 7.5 11.875C7.5 12.2192 7.78076 12.5 8.125 12.5C8.46924 12.5 8.75 12.2192 8.75 11.875C8.75 11.5308 8.46924 11.25 8.125 11.25ZM11.875 11.25C11.5308 11.25 11.25 11.5308 11.25 11.875C11.25 12.2192 11.5308 12.5 11.875 12.5C12.2192 12.5 12.5 12.2192 12.5 11.875C12.5 11.5308 12.2192 11.25 11.875 11.25Z" fill="#F1FCFF"/>
</svg>
