<svg width="30" height="30" viewBox="0 0 30 30" fill="none" xmlns="http://www.w3.org/2000/svg">
<path d="M19.6875 1.875C15.0366 1.875 11.25 5.66162 11.25 10.3125C11.25 12.2974 11.9678 14.1064 13.125 15.5493L3.79395 24.8804L5.1123 26.2134L14.4507 16.875C15.8936 18.0322 17.7026 18.75 19.6875 18.75C24.3384 18.75 28.125 14.9634 28.125 10.3125C28.125 5.66162 24.3384 1.875 19.6875 1.875ZM19.6875 3.75C23.3203 3.75 26.25 6.67969 26.25 10.3125C26.25 13.9453 23.3203 16.875 19.6875 16.875C16.0547 16.875 13.125 13.9453 13.125 10.3125C13.125 6.67969 16.0547 3.75 19.6875 3.75Z" fill="#053D70"/>
</svg>
