<svg width="20" height="20" viewBox="0 0 20 20" fill="none" xmlns="http://www.w3.org/2000/svg">
<path d="M15.625 1.25C13.9062 1.25 12.5 2.65625 12.5 4.375C12.5 4.58984 12.5244 4.79492 12.5635 5L6.89941 7.54883C6.32812 6.76758 5.41016 6.25 4.375 6.25C2.65625 6.25 1.25 7.65625 1.25 9.375C1.25 11.0938 2.65625 12.5 4.375 12.5C5.41504 12.5 6.34277 11.9775 6.90918 11.1865L12.5781 13.7061C12.5293 13.9209 12.5 14.1455 12.5 14.375C12.5 16.0938 13.9062 17.5 15.625 17.5C17.3438 17.5 18.75 16.0938 18.75 14.375C18.75 12.6562 17.3438 11.25 15.625 11.25C14.585 11.25 13.6572 11.7725 13.0908 12.5635L7.42188 10.0488C7.4707 9.8291 7.5 9.60449 7.5 9.375C7.5 9.14062 7.4707 8.91113 7.42188 8.69141L13.0566 6.14258C13.623 6.96289 14.5654 7.5 15.625 7.5C17.3438 7.5 18.75 6.09375 18.75 4.375C18.75 2.65625 17.3438 1.25 15.625 1.25ZM15.625 2.5C16.6699 2.5 17.5 3.33008 17.5 4.375C17.5 5.41992 16.6699 6.25 15.625 6.25C14.5801 6.25 13.75 5.41992 13.75 4.375C13.75 3.33008 14.5801 2.5 15.625 2.5ZM4.375 7.5C5.41992 7.5 6.25 8.33008 6.25 9.375C6.25 10.4199 5.41992 11.25 4.375 11.25C3.33008 11.25 2.5 10.4199 2.5 9.375C2.5 8.33008 3.33008 7.5 4.375 7.5ZM15.625 12.5C16.6699 12.5 17.5 13.3301 17.5 14.375C17.5 15.4199 16.6699 16.25 15.625 16.25C14.5801 16.25 13.75 15.4199 13.75 14.375C13.75 13.3301 14.5801 12.5 15.625 12.5Z" fill="#F1FCFF"/>
</svg>
