<svg width="104" height="37" viewBox="0 0 104 37" fill="none" xmlns="http://www.w3.org/2000/svg">
<path d="M18.3625 10.4273C14.0563 10.4273 10.5422 14.0432 10.5422 18.521C10.5422 22.9989 14.036 26.6148 18.3625 26.6148C22.6891 26.6148 26.1829 22.9989 26.1829 18.521C26.1625 14.0432 22.6485 10.4273 18.3625 10.4273Z" fill="#3880FF"/>
<path d="M29.5547 11.142C31.5292 11.142 33.1297 9.4855 33.1297 7.44205C33.1297 5.3986 31.5292 3.74205 29.5547 3.74205C27.5803 3.74205 25.9797 5.3986 25.9797 7.44205C25.9797 9.4855 27.5803 11.142 29.5547 11.142Z" fill="#3880FF"/>
<path d="M33.9422 11.142L33.8001 10.8057L33.5766 11.1C32.9876 11.7727 32.2563 12.2983 31.4235 12.6136L31.2001 12.7188L31.3016 12.95C32.0329 14.7159 32.3782 16.5869 32.3782 18.5C32.3782 26.4886 26.1016 33.0057 18.3626 33.0057C10.6235 33.0057 4.36724 26.4886 4.36724 18.5C4.36724 10.5114 10.6438 3.99432 18.3829 3.99432C20.4751 3.99432 22.486 4.47784 24.3751 5.40284L24.5782 5.50795L24.6797 5.2767C25.0251 4.4358 25.5735 3.7 26.2641 3.13239L26.5485 2.90114L26.2235 2.73295C23.7657 1.42955 21.1454 0.756818 18.3626 0.756818C8.89693 0.714773 1.19849 8.68239 1.19849 18.458C1.19849 28.2335 8.89693 36.2011 18.3422 36.2011C27.7876 36.2011 35.486 28.2335 35.486 18.458C35.486 15.9563 34.9782 13.4756 33.9422 11.142Z" fill="#3880FF"/>
<path d="M47.9376 10.7847H44.322V26.2364H47.9376V10.7847Z" fill="#3880FF"/>
<path d="M86.958 10.7847H83.3423V26.2364H86.958V10.7847Z" fill="#3880FF"/>
<path d="M74.9939 10.4273C72.4548 10.4273 70.4845 12.025 70.0579 12.4454L69.8345 10.7846H66.8282V26.2364H70.4439V16.8812C70.4439 15.0523 72.8407 13.5596 74.6282 13.5596C76.3548 13.5596 77.7157 15.3045 77.7157 17.3648V26.2153H81.3314V17.7432C81.2704 13.6858 79.5642 10.4273 74.9939 10.4273Z" fill="#3880FF"/>
<path d="M96.4439 23.4403C93.722 23.4403 91.9142 21.254 91.9142 18.521C91.9142 15.7881 93.7017 13.6017 96.4439 13.6017C98.7595 13.6017 100.181 15.9142 100.181 15.9142L102.781 14.0852C102.03 12.8869 101.156 12.1511 99.958 11.4153C99.0642 10.8687 97.8861 10.4062 96.5455 10.4062C92.0158 10.4062 88.5627 13.9381 88.5424 18.5C88.5627 23.0619 92.0158 26.5938 96.5455 26.5938C97.8658 26.5938 99.0642 26.1312 99.958 25.5847C101.156 24.8278 102.03 24.1131 102.781 22.9148L100.161 21.1068C100.161 21.0858 98.7595 23.4403 96.4439 23.4403Z" fill="#3880FF"/>
<path d="M57.3627 10.4273C52.8127 10.4273 49.5424 14.1273 49.5424 18.4369C49.5424 22.8307 52.7111 26.5937 57.4236 26.5937C61.6892 26.5937 65.1627 23.2091 65.1627 18.521C65.183 13.1812 61.1205 10.4273 57.3627 10.4273ZM57.4033 13.6017C59.6377 13.6017 61.7705 15.4937 61.7705 18.521C61.7705 21.4852 59.658 23.4193 57.383 23.4193C54.9049 23.4193 52.9549 21.3381 52.9549 18.5C52.9549 15.6829 54.8846 13.6017 57.4033 13.6017Z" fill="#3880FF"/>
</svg>
