<svg width="288" height="102" viewBox="0 0 288 102" fill="none" xmlns="http://www.w3.org/2000/svg">
<path d="M155.446 46.5991H171V57.6792H155.446V75H143.597V57.6792H128V46.5991H143.597V30H155.446V46.5991Z" fill="#FFCE00"/>
<path fill-rule="evenodd" clip-rule="evenodd" d="M238 8.92832C261.584 8.92832 280.705 27.7841 280.705 51.0395C280.705 74.295 261.584 93.1507 238 93.1507C214.416 93.1507 195.295 74.295 195.295 51.0395C195.295 27.7841 214.416 8.92832 238 8.92832ZM225.96 48.5254H240.833C241.258 48.3858 256.839 24.6415 258.68 22.0575C257.972 22.3369 251.314 27.7841 250.535 28.4126C247.703 30.5775 245.082 32.8123 242.32 35.0471C239.558 37.2818 236.867 39.4467 234.176 41.7513C232.759 42.9385 231.555 43.9162 230.139 45.0336L226.244 48.1763C226.102 48.3858 226.102 48.3858 225.96 48.5254ZM217.391 79.9517C217.958 79.6724 220.72 77.4376 221.499 76.8789C225.394 73.9458 229.856 70.1048 233.751 66.9622C238.992 62.8418 244.232 58.3025 249.544 54.0425L250.11 53.5536L235.38 53.4838C234.813 53.4838 233.467 55.8582 232.972 56.6264L221.782 73.3173C220.365 75.4822 218.878 77.7868 217.391 79.9517ZM238 1.7352C210.38 1.7352 188 23.8034 188 51.0395C188 78.2756 210.38 100.344 238 100.344C265.62 100.344 288 78.2756 288 51.0395C288 23.8034 265.62 1.7352 238 1.7352Z" fill="white"/>
<path fill-rule="evenodd" clip-rule="evenodd" d="M59.0003 85.31C60.4282 83.4678 62.0702 81.909 63.6409 79.9251C65.0688 78.0829 66.4967 76.3116 67.9246 74.3277C69.4239 72.202 68.9241 72.4146 70.7804 72.202C74.8499 71.7769 81.4896 70.289 83.4886 70.1473C84.2739 75.4613 85.7018 77.587 85.6304 84.8141C85.3449 109.4 60.9993 88.2859 59.0003 85.31ZM54.074 39.255C47.9341 40.1052 42.7223 45.561 43.6505 52.6464C44.4358 58.6689 50.1474 63.8413 57.2154 62.9202C63.2125 62.1408 68.4244 56.5433 67.5676 49.5288C66.7109 43.6479 61.0707 38.3339 54.074 39.255ZM52.0036 85.0266C51.5752 86.0894 48.7909 88.3568 47.7199 89.207C43.936 92.3246 35.7971 97.9929 30.3711 96.009C22.8746 93.1748 25.7304 75.1071 27.7295 70.0764C30.4425 70.6433 33.1555 71.2101 35.9398 71.6352C41.937 72.5563 41.2944 71.6352 43.1507 74.2568C44.7928 76.8076 49.8618 83.1844 52.0036 85.0266ZM55.2164 81.8382C56.0017 81.4839 55.7875 81.6256 56.3587 80.9171C56.787 80.3503 56.8584 80.3503 57.3582 79.7834L62.7128 72.9814H48.0769C49.0764 74.8945 54.2168 80.2086 55.2164 81.8382ZM78.7052 57.0393C78.7766 57.1102 78.7766 57.181 78.848 57.181L82.0607 65.4709L72.9936 67.0297L78.7052 57.0393ZM29.086 65.4709C29.4429 63.983 31.7276 57.677 32.4415 56.8976C34.2264 60.4403 36.868 64.479 38.1531 67.1714L29.086 65.4709ZM44.4358 67.8091C42.3653 64.6207 40.1521 61.2905 38.1531 57.6061C34.0122 49.883 34.2264 52.2921 37.0822 46.6946C38.9384 43.0102 41.0089 39.6092 43.2221 36.2791C45.7209 32.5947 45.1497 32.3821 47.5771 32.2404C50.2901 32.0987 52.8603 32.0279 55.5733 32.0279C58.3577 32.0279 60.9993 32.0987 63.7837 32.3113C65.4972 32.3821 65.4972 32.8781 66.2111 33.9409C68.9955 37.9796 71.5657 42.3725 73.9931 46.8363C76.0636 50.6624 76.4919 50.7333 75.4924 52.5755C74.5643 54.4177 73.5648 56.1182 72.6366 57.8896C70.4234 62.0699 68.4243 64.5498 66.4967 67.9508C58.6433 68.3051 52.2892 68.3051 44.4358 67.8091ZM86.9155 64.1956C91.4134 62.6368 94.5547 61.7865 98.4814 59.5192C118.329 47.97 94.1978 37.5545 87.4153 36.4208C86.8441 37.3419 85.3449 42.0183 84.8451 43.4353C81.1326 53.4966 80.49 48.5368 84.1311 57.3227C84.7023 58.5272 86.273 63.5579 86.9155 64.1956ZM24.3025 64.1956C24.8023 61.8574 27.0869 56.2599 28.2292 53.78C28.8004 52.5755 29.5857 51.5127 29.086 50.2373C27.3011 45.7027 24.9451 41.2389 23.8028 36.2791C18.8052 37.2002 4.74043 43.1519 4.95461 50.379C5.24019 56.8976 17.0917 62.6368 24.3025 64.1956ZM28.5148 35.1454C28.9432 38.263 31.2278 42.3725 32.0845 45.2775C32.1559 45.2067 32.2273 45.065 32.2273 45.1358L33.8694 42.3725C34.3692 41.3806 35.0117 40.3178 35.5829 39.3258L39.2954 33.1615C37.1535 33.3032 30.0855 34.2952 28.5148 35.1454ZM78.7052 45.1358C79.7047 43.6479 81.8465 37.1293 82.4177 35.0746C81.3468 34.2952 73.3506 33.1615 71.4943 32.949L78.7052 45.1358ZM49.7904 27.2806C50.076 26.5721 51.9322 24.4465 52.5034 23.7379L55.2164 20.4787C56.2159 20.9746 57.6438 22.746 58.3577 23.6671C59.2858 24.7299 60.4996 26.0053 61.1421 27.2806H49.7904ZM59.0003 16.936L65.4258 24.659C68.2816 28.556 67.1393 27.6349 71.4943 28.2017C76.4919 28.7686 79.3477 29.6188 83.7742 30.3274C85.559 25.2967 88.1292 7.72494 79.7047 5.95359C72.8508 4.46566 63.4267 12.4013 59.0003 16.936ZM27.0869 30.3274C32.7271 29.4771 35.1545 28.556 41.58 27.9183C43.7218 27.7058 43.3649 27.5641 45.4353 24.5882C46.0779 23.6671 46.9346 22.6751 47.5771 21.8957C48.3625 21.0455 51.6466 17.2902 51.9322 16.5817L47.7199 12.8973C44.1502 9.92141 36.4396 4.74907 31.2278 5.95359C22.8032 7.86665 25.5876 22.9585 27.0869 30.3274ZM22.3749 31.5319L14.9498 34.2952C0.0997868 40.7429 -6.46851 52.7172 8.38155 62.4951C11.8085 64.7624 18.0912 67.7383 22.8032 68.7302C21.5895 75.0362 20.0189 79.9251 20.59 87.0105C21.7323 101.748 32.0845 104.441 43.7218 97.922C47.2916 95.9381 52.7889 91.8286 55.2878 88.8527C56.2873 89.2779 59.1431 92.1829 60.9279 93.5999C66.4253 97.8512 75.6352 103.803 83.1316 100.26C87.5581 98.1346 89.9141 93.2457 90.3425 86.798C90.8422 79.996 89.2716 74.9654 88.0579 68.8011C108.191 63.5579 119.757 49.2454 102.837 37.8379C98.6242 35.0037 93.9122 33.3032 88.5576 31.5319C89.6285 25.2967 91.0564 20.6204 90.1997 13.7475C89.4857 7.65409 86.8441 3.26114 82.2749 1.48979C76.8489 -0.635827 70.5662 2.19833 66.6395 4.46566C64.569 5.67018 62.2844 7.29982 60.7137 8.64604L56.7156 12.047C55.9303 12.8973 56.2873 12.8973 55.2164 13.3224C53.0031 10.4882 47.5058 6.59128 44.293 4.67822C33.798 -1.62778 22.6605 -0.494119 20.8042 13.6058C19.7333 22.0374 21.8751 25.9344 22.3749 31.5319Z" fill="#61DAFB"/>
</svg>
