<svg width="40" height="40" viewBox="0 0 40 40" fill="none" xmlns="http://www.w3.org/2000/svg">
<rect width="40" height="40" rx="10" fill="#F7F7FC"/>
<path d="M9.6875 7.8125C8.66211 7.8125 7.8125 8.66211 7.8125 9.6875V30.3125C7.8125 31.3379 8.66211 32.1875 9.6875 32.1875H15.3125C16.3379 32.1875 17.1875 31.3379 17.1875 30.3125V9.6875C17.1875 8.66211 16.3379 7.8125 15.3125 7.8125H9.6875ZM9.6875 9.6875H15.3125V15.3125H9.6875V9.6875ZM11.5625 11.5625V13.4375H13.4375V11.5625H11.5625ZM19.0625 11.5625V13.4375H24.6875V11.5625H19.0625ZM26.5625 11.5625V13.4375H32.1875V11.5625H26.5625ZM9.6875 17.1875H15.3125V22.8125H9.6875V17.1875ZM12.5 19.0625C11.98 19.0625 11.5625 19.48 11.5625 20C11.5625 20.52 11.98 20.9375 12.5 20.9375C13.02 20.9375 13.4375 20.52 13.4375 20C13.4375 19.48 13.02 19.0625 12.5 19.0625ZM19.0625 19.0625V20.9375H24.6875V19.0625H19.0625ZM26.5625 19.0625V20.9375H32.1875V19.0625H26.5625ZM9.6875 24.6875H15.3125V30.3125H9.6875V24.6875ZM11.5625 26.5625V28.4375H13.4375V26.5625H11.5625ZM19.0625 26.5625V28.4375H24.6875V26.5625H19.0625ZM26.5625 26.5625V28.4375H32.1875V26.5625H26.5625Z" fill="#002B52"/>
</svg>
