<svg width="38" height="38" viewBox="0 0 38 38" fill="none" xmlns="http://www.w3.org/2000/svg">
<path d="M0.25 37.75V0.25H37.75V37.75H0.25Z" fill="#FFD600"/>
<path d="M24.7686 28.3197C25.4897 29.4907 26.273 30.6126 27.9323 30.6126C29.3259 30.6126 30.0571 29.9196 30.0571 28.9613C30.0571 27.8147 29.3011 27.4074 27.7679 26.7397L26.9272 26.3812C24.5009 25.3521 22.8875 24.0627 22.8875 21.3385C22.8875 18.8283 24.8093 16.9179 27.8127 16.9179C29.9509 16.9179 31.4874 17.6585 32.5958 19.5977L29.977 21.2717C29.4012 20.2427 28.7782 19.8374 27.8127 19.8374C26.8271 19.8374 26.203 20.4596 26.203 21.2717C26.203 22.276 26.828 22.6825 28.2708 23.3042L29.1115 23.6627C31.9708 24.8801 33.5833 26.124 33.5833 28.9198C33.5833 31.9321 31.2042 33.5833 28.0104 33.5833C24.8866 33.5833 23.1125 32.0155 22.125 30.075L24.7686 28.3197Z" fill="#000001"/>
<path d="M12.7 28.4051C13.2269 29.3491 14.0281 30.075 15.18 30.075C16.2823 30.075 16.9167 29.6397 16.9167 27.9469V16.9167H20.3883V28.4804C20.3883 31.9875 18.3542 33.5833 15.3835 33.5833C12.6991 33.5833 10.7615 31.7645 9.97168 30.075L12.7 28.4051Z" fill="#000001"/>
</svg>
