<svg width="30" height="30" viewBox="0 0 30 30" fill="none" xmlns="http://www.w3.org/2000/svg">
<path d="M15 5.625C13.9636 5.625 13.125 6.46362 13.125 7.5C13.125 8.53638 13.9636 9.375 15 9.375C16.0364 9.375 16.875 8.53638 16.875 7.5C16.875 6.46362 16.0364 5.625 15 5.625ZM15 13.125C13.9636 13.125 13.125 13.9636 13.125 15C13.125 16.0364 13.9636 16.875 15 16.875C16.0364 16.875 16.875 16.0364 16.875 15C16.875 13.9636 16.0364 13.125 15 13.125ZM15 20.625C13.9636 20.625 13.125 21.4636 13.125 22.5C13.125 23.5364 13.9636 24.375 15 24.375C16.0364 24.375 16.875 23.5364 16.875 22.5C16.875 21.4636 16.0364 20.625 15 20.625Z" fill="#FCFCFC"/>
</svg>
