<svg width="30" height="30" viewBox="0 0 30 30" fill="none" xmlns="http://www.w3.org/2000/svg">
<path d="M3.75 26.25V3.75H26.25V26.25H3.75Z" fill="#FFD600"/>
<path d="M18.4612 20.5918C18.8938 21.2944 19.3638 21.9675 20.3594 21.9675C21.1956 21.9675 21.6343 21.5518 21.6343 20.9768C21.6343 20.2888 21.1807 20.0444 20.2607 19.6438L19.7563 19.4287C18.3005 18.8113 17.3325 18.0376 17.3325 16.4031C17.3325 14.897 18.4856 13.7507 20.2876 13.7507C21.5706 13.7507 22.4924 14.1951 23.1575 15.3586L21.5862 16.363C21.2407 15.7456 20.8669 15.5024 20.2876 15.5024C19.6963 15.5024 19.3218 15.8757 19.3218 16.363C19.3218 16.9656 19.6968 17.2095 20.5625 17.5825L21.0669 17.7976C22.7825 18.5281 23.75 19.2744 23.75 20.9519C23.75 22.7593 22.3225 23.75 20.4062 23.75C18.532 23.75 17.4675 22.8093 16.875 21.645L18.4612 20.5918Z" fill="#000001"/>
<path d="M11.22 20.6431C11.5361 21.2095 12.0168 21.645 12.708 21.645C13.3694 21.645 13.75 21.3838 13.75 20.3682V13.75H15.833V20.6882C15.833 22.7925 14.6125 23.75 12.8301 23.75C11.2195 23.75 10.0569 22.6587 9.58301 21.645L11.22 20.6431Z" fill="#000001"/>
</svg>
